<?xml version="1.0" encoding="UTF-8" standalone="no"?>
<svg
   id="Laag_1"
   data-name="Laag 1"
   viewBox="0 0 64.92 183.12"
   version="1.1"
   sodipodi:docname="brown-parallax.svg"
   inkscape:version="1.1.2 (0a00cf5339, 2022-02-04)"
   xmlns:inkscape="http://www.inkscape.org/namespaces/inkscape"
   xmlns:sodipodi="http://sodipodi.sourceforge.net/DTD/sodipodi-0.dtd"
   xmlns="http://www.w3.org/2000/svg"
   xmlns:svg="http://www.w3.org/2000/svg">
  <sodipodi:namedview
     id="namedview29"
     pagecolor="#ffffff"
     bordercolor="#666666"
     borderopacity="1.0"
     inkscape:pageshadow="2"
     inkscape:pageopacity="0.0"
     inkscape:pagecheckerboard="0"
     showgrid="false"
     inkscape:zoom="4.2704239"
     inkscape:cx="32.549462"
     inkscape:cy="91.677082"
     inkscape:window-width="1846"
     inkscape:window-height="1016"
     inkscape:window-x="0"
     inkscape:window-y="0"
     inkscape:window-maximized="1"
     inkscape:current-layer="Laag_1" />
  <defs
     id="defs4">
    <style
       id="style2">.cls-1{fill:#76b3cb;}</style>
  </defs>
  <path
     class="cls-1"
     d="M49.75,31.26V23.67a3.79,3.79,0,0,0-7.58,0v7.59a3.79,3.79,0,0,0,7.58,0Z"
     id="path6"
     style="fill:#41403f;fill-opacity:1" />
  <path
     class="cls-1"
     d="M19.42,14.2A3.79,3.79,0,1,0,15.63,18,3.79,3.79,0,0,0,19.42,14.2Z"
     id="path8"
     style="fill:#41403f;fill-opacity:1" />
  <path
     class="cls-1"
     d="M19.42,29.36a3.79,3.79,0,1,0-3.79,3.79A3.78,3.78,0,0,0,19.42,29.36Z"
     id="path10"
     style="fill:#41403f;fill-opacity:1" />
  <path
     class="cls-1"
     d="M42.17,100.82v22.75a3.79,3.79,0,1,0,7.58,0V100.82A3.79,3.79,0,0,0,46,97,3.79,3.79,0,0,0,42.17,100.82Z"
     id="path12"
     style="fill:#41403f;fill-opacity:1" />
  <path
     class="cls-1"
     d="M28.11,166.39a3.8,3.8,0,1,0,2.69-1.11A3.79,3.79,0,0,0,28.11,166.39Z"
     id="path14"
     style="fill:#41403f;fill-opacity:1" />
  <path
     class="cls-1"
     d="M11.84,138.73a19,19,0,0,0,19,19,3.79,3.79,0,1,0,0-7.58,11.39,11.39,0,0,1-11.38-11.38,3.79,3.79,0,0,0-7.58,0Z"
     id="path16"
     style="fill:#41403f;fill-opacity:1" />
  <path
     class="cls-1"
     d="M27,93.23V110.3a3.8,3.8,0,0,0,7.59,0V93.23a3.8,3.8,0,0,0-7.59,0Z"
     id="path18"
     style="fill:#41403f;fill-opacity:1" />
  <path
     class="cls-1"
     d="M11.84,51.53v7.58a3.79,3.79,0,0,0,7.58,0V51.53a3.79,3.79,0,1,0-7.58,0Z"
     id="path20"
     style="fill:#41403f;fill-opacity:1" />
  <path
     class="cls-1"
     d="M11.84,138.73a19,19,0,0,0,19,19,3.79,3.79,0,1,0,0-7.58,11.39,11.39,0,0,1-11.38-11.38,3.79,3.79,0,0,0-7.58,0Z"
     id="path22"
     style="fill:#41403f;fill-opacity:1" />
  <path
     class="cls-1"
     d="M42.17,68.59A3.79,3.79,0,1,0,46,64.8,3.8,3.8,0,0,0,42.17,68.59Z"
     id="path24"
     style="fill:#41403f;fill-opacity:1" />
  <path
     class="cls-1"
     d="M27,169.07a3.79,3.79,0,1,0,1.11-2.68A3.8,3.8,0,0,0,27,169.07Z"
     id="path26"
     style="fill:#41403f;fill-opacity:1" />
</svg>
